<mxfile host="app.diagrams.net" modified="2024-02-12T14:43:31.950Z" agent="Mozilla/5.0 (Windows NT 10.0; Win64; x64) AppleWebKit/537.36 (KHTML, like Gecko) Chrome/121.0.0.0 Safari/537.36" etag="KVc1v69ygk0Wxn0xlUpe" version="23.1.2" type="google">
  <diagram name="Page-1" id="n34yHCSyJIV7Ora_BZYF">
    <mxGraphModel dx="880" dy="472" grid="1" gridSize="10" guides="1" tooltips="1" connect="1" arrows="1" fold="1" page="1" pageScale="1" pageWidth="850" pageHeight="1100" math="0" shadow="0">
      <root>
        <mxCell id="0" />
        <mxCell id="1" parent="0" />
        <mxCell id="8O9YFg4n5rPzEqFyWmxb-1" value="Text" style="text;html=1;align=center;verticalAlign=middle;resizable=0;points=[];autosize=1;strokeColor=none;fillColor=none;" parent="1" vertex="1">
          <mxGeometry x="135" y="38" width="50" height="30" as="geometry" />
        </mxCell>
        <mxCell id="4IS7N9krxWS7hBYY3zNa-3" value="" style="edgeStyle=orthogonalEdgeStyle;rounded=0;orthogonalLoop=1;jettySize=auto;html=1;" edge="1" parent="1" source="4IS7N9krxWS7hBYY3zNa-1" target="4IS7N9krxWS7hBYY3zNa-2">
          <mxGeometry relative="1" as="geometry" />
        </mxCell>
        <mxCell id="4IS7N9krxWS7hBYY3zNa-1" value="Start" style="ellipse;whiteSpace=wrap;html=1;" vertex="1" parent="1">
          <mxGeometry x="320" y="20" width="90" height="60" as="geometry" />
        </mxCell>
        <mxCell id="4IS7N9krxWS7hBYY3zNa-5" value="" style="edgeStyle=orthogonalEdgeStyle;rounded=0;orthogonalLoop=1;jettySize=auto;html=1;" edge="1" parent="1" source="4IS7N9krxWS7hBYY3zNa-2" target="4IS7N9krxWS7hBYY3zNa-4">
          <mxGeometry relative="1" as="geometry" />
        </mxCell>
        <mxCell id="4IS7N9krxWS7hBYY3zNa-2" value="Sum of the two precending no&amp;nbsp;" style="rhombus;whiteSpace=wrap;html=1;" vertex="1" parent="1">
          <mxGeometry x="305" y="130" width="120" height="100" as="geometry" />
        </mxCell>
        <mxCell id="4IS7N9krxWS7hBYY3zNa-8" style="edgeStyle=orthogonalEdgeStyle;rounded=0;orthogonalLoop=1;jettySize=auto;html=1;" edge="1" parent="1" source="4IS7N9krxWS7hBYY3zNa-4">
          <mxGeometry relative="1" as="geometry">
            <mxPoint x="200" y="170" as="targetPoint" />
          </mxGeometry>
        </mxCell>
        <mxCell id="4IS7N9krxWS7hBYY3zNa-16" value="" style="edgeStyle=orthogonalEdgeStyle;rounded=0;orthogonalLoop=1;jettySize=auto;html=1;" edge="1" parent="1" source="4IS7N9krxWS7hBYY3zNa-4" target="4IS7N9krxWS7hBYY3zNa-15">
          <mxGeometry relative="1" as="geometry" />
        </mxCell>
        <mxCell id="4IS7N9krxWS7hBYY3zNa-4" value="Does the present no. is equal to the desire no." style="rhombus;whiteSpace=wrap;html=1;" vertex="1" parent="1">
          <mxGeometry x="265" y="270" width="200" height="190" as="geometry" />
        </mxCell>
        <mxCell id="4IS7N9krxWS7hBYY3zNa-13" value="" style="endArrow=classic;html=1;rounded=0;entryX=0;entryY=0.5;entryDx=0;entryDy=0;" edge="1" parent="1" target="4IS7N9krxWS7hBYY3zNa-2">
          <mxGeometry width="50" height="50" relative="1" as="geometry">
            <mxPoint x="200" y="180" as="sourcePoint" />
            <mxPoint x="250" y="130" as="targetPoint" />
          </mxGeometry>
        </mxCell>
        <mxCell id="4IS7N9krxWS7hBYY3zNa-15" value="Output" style="rounded=1;whiteSpace=wrap;html=1;" vertex="1" parent="1">
          <mxGeometry x="585" y="335" width="120" height="60" as="geometry" />
        </mxCell>
      </root>
    </mxGraphModel>
  </diagram>
</mxfile>
